<?xml version="1.0" standalone="no"?><!DOCTYPE svg PUBLIC "-//W3C//DTD SVG 1.1//EN" "http://www.w3.org/Graphics/SVG/1.1/DTD/svg11.dtd"><svg t="1702542119184" class="icon" viewBox="0 0 1024 1024" version="1.1" xmlns="http://www.w3.org/2000/svg" p-id="4136" xmlns:xlink="http://www.w3.org/1999/xlink" width="200" height="200"><path d="M692.906667 938.666667a42.666667 42.666667 0 0 1-42.666667-42.666667v-110.933333a91.733333 91.733333 0 0 0-23.04-70.826667 42.666667 42.666667 0 0 1 26.026667-71.253333C757.333333 630.613333 853.333333 597.333333 853.333333 416.853333a170.666667 170.666667 0 0 0-28.586666-94.72 117.333333 117.333333 0 0 1-17.493334-87.893333 158.293333 158.293333 0 0 0 0-60.16 326.4 326.4 0 0 0-89.173333 46.506667 42.666667 42.666667 0 0 1-35.84 6.4 433.066667 433.066667 0 0 0-235.52 0 42.666667 42.666667 0 0 1-35.84-6.4 315.733333 315.733333 0 0 0-90.026667-46.506667 150.186667 150.186667 0 0 0 0 60.16 121.173333 121.173333 0 0 1-18.346666 88.746667 173.653333 173.653333 0 0 0-28.586667 95.146666c0 165.973333 80.213333 210.346667 200.533333 225.706667a42.666667 42.666667 0 0 1 34.986667 28.16 42.666667 42.666667 0 0 1-8.96 42.666667 87.893333 87.893333 0 0 0-23.466667 66.56V896a42.666667 42.666667 0 0 1-85.333333 0v-24.32a256 256 0 0 1-224.853333-89.173333 166.4 166.4 0 0 0-49.493334-37.546667 42.666667 42.666667 0 1 1 21.333334-82.773333 210.346667 210.346667 0 0 1 85.333333 58.026666c42.666667 42.666667 85.333333 80.213333 166.4 64.853334a165.973333 165.973333 0 0 1 9.813333-67.413334c-87.893333-22.186667-213.333333-85.333333-213.333333-298.666666a256 256 0 0 1 42.666667-142.08 36.266667 36.266667 0 0 0 5.546666-26.453334 242.773333 242.773333 0 0 1 14.08-136.96 42.666667 42.666667 0 0 1 26.88-24.32c14.506667-4.266667 66.56-12.8 165.12 51.2a518.826667 518.826667 0 0 1 242.773334 0c98.56-64 150.613333-55.893333 164.693333-51.2a42.666667 42.666667 0 0 1 26.88 24.32 243.626667 243.626667 0 0 1 14.08 137.386667 32 32 0 0 0 4.693333 24.32 256 256 0 0 1 42.666667 142.506667c0 216.32-124.586667 279.04-213.333333 298.666666a182.613333 182.613333 0 0 1 9.386666 71.253334V896a42.666667 42.666667 0 0 1-40.106666 42.666667z" fill="#666666"  p-id="4137"></path></svg>